<mxfile host="app.diagrams.net" agent="Mozilla/5.0 (Windows NT 10.0; Win64; x64) AppleWebKit/537.36 (KHTML, like Gecko) Chrome/135.0.0.0 Safari/537.36 Edg/135.0.0.0" version="26.2.13">
  <diagram id="C5RBs43oDa-KdzZeNtuy" name="用户需求分析用例图">
    <mxGraphModel dx="1053" dy="708" grid="1" gridSize="10" guides="1" tooltips="1" connect="1" arrows="1" fold="1" page="1" pageScale="1" pageWidth="1169" pageHeight="827" math="0" shadow="0">
      <root>
        <mxCell id="WIyWlLk6GJQsqaUBKTNV-0" />
        <mxCell id="WIyWlLk6GJQsqaUBKTNV-1" parent="WIyWlLk6GJQsqaUBKTNV-0" />
        <mxCell id="system-boundary" value="多功能图片收藏和管理系统" style="shape=umlFrame;whiteSpace=wrap;html=1;width=180;height=30;strokeWidth=2;" parent="WIyWlLk6GJQsqaUBKTNV-1" vertex="1">
          <mxGeometry x="170" y="70" width="770" height="610" as="geometry" />
        </mxCell>
        <mxCell id="UtZu38TfjBh3zFQ7cZuc-14" style="rounded=0;orthogonalLoop=1;jettySize=auto;html=1;exitX=0.5;exitY=0.5;exitDx=0;exitDy=0;exitPerimeter=0;entryX=0;entryY=0.5;entryDx=0;entryDy=0;" edge="1" parent="WIyWlLk6GJQsqaUBKTNV-1" source="actor-1" target="usecase-1">
          <mxGeometry relative="1" as="geometry" />
        </mxCell>
        <mxCell id="actor-1" value="普通用户" style="shape=umlActor;verticalLabelPosition=bottom;verticalAlign=top;html=1;outlineConnect=0;" parent="WIyWlLk6GJQsqaUBKTNV-1" vertex="1">
          <mxGeometry x="90" y="310" width="30" height="60" as="geometry" />
        </mxCell>
        <mxCell id="usecase-1" value="用户注册" style="ellipse;whiteSpace=wrap;html=1;" parent="WIyWlLk6GJQsqaUBKTNV-1" vertex="1">
          <mxGeometry x="270" y="110" width="110" height="40" as="geometry" />
        </mxCell>
        <mxCell id="usecase-5" value="上传图片" style="ellipse;whiteSpace=wrap;html=1;" parent="WIyWlLk6GJQsqaUBKTNV-1" vertex="1">
          <mxGeometry x="270" y="260" width="110" height="40" as="geometry" />
        </mxCell>
        <mxCell id="usecase-6" value="浏览图片" style="ellipse;whiteSpace=wrap;html=1;" parent="WIyWlLk6GJQsqaUBKTNV-1" vertex="1">
          <mxGeometry x="270" y="400" width="110" height="40" as="geometry" />
        </mxCell>
        <mxCell id="usecase-8" value="删除图片" style="ellipse;whiteSpace=wrap;html=1;" parent="WIyWlLk6GJQsqaUBKTNV-1" vertex="1">
          <mxGeometry x="270" y="490" width="110" height="40" as="geometry" />
        </mxCell>
        <mxCell id="usecase-9" value="基础搜索" style="ellipse;whiteSpace=wrap;html=1;" parent="WIyWlLk6GJQsqaUBKTNV-1" vertex="1">
          <mxGeometry x="270" y="570" width="110" height="40" as="geometry" />
        </mxCell>
        <mxCell id="usecase-12" value="查看推荐内容" style="ellipse;whiteSpace=wrap;html=1;" parent="WIyWlLk6GJQsqaUBKTNV-1" vertex="1">
          <mxGeometry x="720" y="440" width="110" height="40" as="geometry" />
        </mxCell>
        <mxCell id="usecase-14" value="添加到收藏夹" style="ellipse;whiteSpace=wrap;html=1;" parent="WIyWlLk6GJQsqaUBKTNV-1" vertex="1">
          <mxGeometry x="530" y="530" width="110" height="40" as="geometry" />
        </mxCell>
        <mxCell id="usecase-15" value="管理收藏夹" style="ellipse;whiteSpace=wrap;html=1;" parent="WIyWlLk6GJQsqaUBKTNV-1" vertex="1">
          <mxGeometry x="530" y="320" width="110" height="40" as="geometry" />
        </mxCell>
        <mxCell id="usecase-18" value="评论图片" style="ellipse;whiteSpace=wrap;html=1;" parent="WIyWlLk6GJQsqaUBKTNV-1" vertex="1">
          <mxGeometry x="530" y="390" width="110" height="40" as="geometry" />
        </mxCell>
        <mxCell id="usecase-20" value="分享图片" style="ellipse;whiteSpace=wrap;html=1;" parent="WIyWlLk6GJQsqaUBKTNV-1" vertex="1">
          <mxGeometry x="530" y="460" width="110" height="40" as="geometry" />
        </mxCell>
        <mxCell id="usecase-23" value="文本关键字标签建议" style="ellipse;whiteSpace=wrap;html=1;" parent="WIyWlLk6GJQsqaUBKTNV-1" vertex="1">
          <mxGeometry x="530" y="200" width="110" height="40" as="geometry" />
        </mxCell>
        <mxCell id="include-1" value="«包含»" style="endArrow=open;endSize=12;dashed=1;html=1;exitX=1;exitY=0.5;exitDx=0;exitDy=0;entryX=0;entryY=0.5;entryDx=0;entryDy=0;" parent="WIyWlLk6GJQsqaUBKTNV-1" source="usecase-5" target="usecase-23" edge="1">
          <mxGeometry width="160" relative="1" as="geometry">
            <mxPoint x="370" y="330" as="sourcePoint" />
            <mxPoint x="510" y="520" as="targetPoint" />
            <Array as="points" />
          </mxGeometry>
        </mxCell>
        <mxCell id="usecase-13" value="创建收藏夹" style="ellipse;whiteSpace=wrap;html=1;" parent="WIyWlLk6GJQsqaUBKTNV-1" vertex="1">
          <mxGeometry x="270" y="330" width="110" height="40" as="geometry" />
        </mxCell>
        <mxCell id="usecase-2" value="用户登录" style="ellipse;whiteSpace=wrap;html=1;" parent="WIyWlLk6GJQsqaUBKTNV-1" vertex="1">
          <mxGeometry x="270" y="190" width="110" height="40" as="geometry" />
        </mxCell>
        <mxCell id="UtZu38TfjBh3zFQ7cZuc-5" value="图像识别标签建议" style="ellipse;whiteSpace=wrap;html=1;" vertex="1" parent="WIyWlLk6GJQsqaUBKTNV-1">
          <mxGeometry x="530" y="270" width="110" height="40" as="geometry" />
        </mxCell>
        <mxCell id="UtZu38TfjBh3zFQ7cZuc-6" value="«包含»" style="endArrow=open;endSize=12;dashed=1;html=1;exitX=1;exitY=0.5;exitDx=0;exitDy=0;entryX=0;entryY=0.5;entryDx=0;entryDy=0;" edge="1" parent="WIyWlLk6GJQsqaUBKTNV-1" source="usecase-5" target="UtZu38TfjBh3zFQ7cZuc-5">
          <mxGeometry width="160" relative="1" as="geometry">
            <mxPoint x="390" y="280" as="sourcePoint" />
            <mxPoint x="540" y="200" as="targetPoint" />
            <Array as="points" />
          </mxGeometry>
        </mxCell>
        <mxCell id="UtZu38TfjBh3zFQ7cZuc-8" value="«包含»" style="endArrow=open;endSize=12;dashed=1;html=1;exitX=1;exitY=0.5;exitDx=0;exitDy=0;" edge="1" parent="WIyWlLk6GJQsqaUBKTNV-1" source="usecase-13" target="usecase-15">
          <mxGeometry width="160" relative="1" as="geometry">
            <mxPoint x="400" y="290" as="sourcePoint" />
            <mxPoint x="550" y="210" as="targetPoint" />
            <Array as="points" />
          </mxGeometry>
        </mxCell>
        <mxCell id="UtZu38TfjBh3zFQ7cZuc-10" value="«包含»" style="endArrow=open;endSize=12;dashed=1;html=1;exitX=1;exitY=0.5;exitDx=0;exitDy=0;entryX=0;entryY=0.5;entryDx=0;entryDy=0;" edge="1" parent="WIyWlLk6GJQsqaUBKTNV-1" source="usecase-6" target="usecase-18">
          <mxGeometry width="160" relative="1" as="geometry">
            <mxPoint x="390" y="360" as="sourcePoint" />
            <mxPoint x="540" y="353" as="targetPoint" />
            <Array as="points" />
          </mxGeometry>
        </mxCell>
        <mxCell id="UtZu38TfjBh3zFQ7cZuc-11" value="«包含»" style="endArrow=open;endSize=12;dashed=1;html=1;exitX=1;exitY=0.5;exitDx=0;exitDy=0;entryX=0;entryY=0.5;entryDx=0;entryDy=0;" edge="1" parent="WIyWlLk6GJQsqaUBKTNV-1" source="usecase-6" target="usecase-20">
          <mxGeometry width="160" relative="1" as="geometry">
            <mxPoint x="400" y="370" as="sourcePoint" />
            <mxPoint x="550" y="363" as="targetPoint" />
            <Array as="points" />
          </mxGeometry>
        </mxCell>
        <mxCell id="UtZu38TfjBh3zFQ7cZuc-12" value="«包含»" style="endArrow=open;endSize=12;dashed=1;html=1;exitX=1;exitY=0.5;exitDx=0;exitDy=0;entryX=0;entryY=0.5;entryDx=0;entryDy=0;" edge="1" parent="WIyWlLk6GJQsqaUBKTNV-1" source="usecase-6" target="usecase-12">
          <mxGeometry width="160" relative="1" as="geometry">
            <mxPoint x="410" y="380" as="sourcePoint" />
            <mxPoint x="560" y="373" as="targetPoint" />
            <Array as="points" />
          </mxGeometry>
        </mxCell>
        <mxCell id="UtZu38TfjBh3zFQ7cZuc-13" value="«包含»" style="endArrow=open;endSize=12;dashed=1;html=1;exitX=1;exitY=0.5;exitDx=0;exitDy=0;entryX=0;entryY=0.5;entryDx=0;entryDy=0;" edge="1" parent="WIyWlLk6GJQsqaUBKTNV-1" source="usecase-6" target="usecase-14">
          <mxGeometry width="160" relative="1" as="geometry">
            <mxPoint x="420" y="390" as="sourcePoint" />
            <mxPoint x="570" y="383" as="targetPoint" />
            <Array as="points" />
          </mxGeometry>
        </mxCell>
        <mxCell id="UtZu38TfjBh3zFQ7cZuc-15" style="rounded=0;orthogonalLoop=1;jettySize=auto;html=1;exitX=0.5;exitY=0.5;exitDx=0;exitDy=0;exitPerimeter=0;entryX=0;entryY=0.5;entryDx=0;entryDy=0;" edge="1" parent="WIyWlLk6GJQsqaUBKTNV-1" source="actor-1" target="usecase-2">
          <mxGeometry relative="1" as="geometry">
            <mxPoint x="115" y="350" as="sourcePoint" />
            <mxPoint x="280" y="140" as="targetPoint" />
          </mxGeometry>
        </mxCell>
        <mxCell id="UtZu38TfjBh3zFQ7cZuc-16" style="rounded=0;orthogonalLoop=1;jettySize=auto;html=1;entryX=0;entryY=0.5;entryDx=0;entryDy=0;" edge="1" parent="WIyWlLk6GJQsqaUBKTNV-1" target="usecase-5">
          <mxGeometry relative="1" as="geometry">
            <mxPoint x="110" y="340" as="sourcePoint" />
            <mxPoint x="290" y="150" as="targetPoint" />
          </mxGeometry>
        </mxCell>
        <mxCell id="UtZu38TfjBh3zFQ7cZuc-17" style="rounded=0;orthogonalLoop=1;jettySize=auto;html=1;exitX=0.5;exitY=0.5;exitDx=0;exitDy=0;exitPerimeter=0;entryX=0;entryY=0.5;entryDx=0;entryDy=0;" edge="1" parent="WIyWlLk6GJQsqaUBKTNV-1" source="actor-1" target="usecase-13">
          <mxGeometry relative="1" as="geometry">
            <mxPoint x="135" y="370" as="sourcePoint" />
            <mxPoint x="300" y="160" as="targetPoint" />
          </mxGeometry>
        </mxCell>
        <mxCell id="UtZu38TfjBh3zFQ7cZuc-19" style="rounded=0;orthogonalLoop=1;jettySize=auto;html=1;exitX=0.5;exitY=0.5;exitDx=0;exitDy=0;exitPerimeter=0;entryX=0;entryY=0.5;entryDx=0;entryDy=0;" edge="1" parent="WIyWlLk6GJQsqaUBKTNV-1" source="actor-1" target="usecase-6">
          <mxGeometry relative="1" as="geometry">
            <mxPoint x="145" y="380" as="sourcePoint" />
            <mxPoint x="310" y="170" as="targetPoint" />
          </mxGeometry>
        </mxCell>
        <mxCell id="UtZu38TfjBh3zFQ7cZuc-20" style="rounded=0;orthogonalLoop=1;jettySize=auto;html=1;exitX=0.5;exitY=0.5;exitDx=0;exitDy=0;exitPerimeter=0;entryX=0;entryY=0.5;entryDx=0;entryDy=0;" edge="1" parent="WIyWlLk6GJQsqaUBKTNV-1" source="actor-1" target="usecase-8">
          <mxGeometry relative="1" as="geometry">
            <mxPoint x="155" y="390" as="sourcePoint" />
            <mxPoint x="320" y="180" as="targetPoint" />
          </mxGeometry>
        </mxCell>
        <mxCell id="UtZu38TfjBh3zFQ7cZuc-21" style="rounded=0;orthogonalLoop=1;jettySize=auto;html=1;exitX=0.5;exitY=0.5;exitDx=0;exitDy=0;exitPerimeter=0;entryX=0;entryY=0.5;entryDx=0;entryDy=0;" edge="1" parent="WIyWlLk6GJQsqaUBKTNV-1" source="actor-1" target="usecase-9">
          <mxGeometry relative="1" as="geometry">
            <mxPoint x="165" y="400" as="sourcePoint" />
            <mxPoint x="330" y="190" as="targetPoint" />
          </mxGeometry>
        </mxCell>
      </root>
    </mxGraphModel>
  </diagram>
</mxfile>
